<?xml version="1.0" standalone="no"?>
<!DOCTYPE svg PUBLIC "-//W3C//DTD SVG 20010904//EN"
 "http://www.w3.org/TR/2001/REC-SVG-20010904/DTD/svg10.dtd">
<svg version="1.0" xmlns="http://www.w3.org/2000/svg"
 width="530.000000pt" height="530.000000pt" viewBox="0 0 530.000000 530.000000"
 preserveAspectRatio="xMidYMid meet">
<metadata>
Created by potrace 1.14, written by Peter Selinger 2001-2017
</metadata>
<g transform="translate(0.000000,530.000000) scale(0.100000,-0.100000)"
fill="#000000" stroke="none">
<path d="M2395 5283 c-501 -53 -955 -234 -1358 -540 -130 -99 -380 -349 -478
-478 -283 -372 -453 -772 -526 -1235 -26 -164 -26 -606 0 -770 73 -463 243
-863 526 -1235 98 -129 348 -379 478 -478 363 -276 740 -439 1199 -519 115
-20 162 -23 424 -22 275 0 305 2 440 27 185 33 366 83 516 142 884 348 1511
1132 1661 2077 26 162 26 624 0 786 -92 578 -361 1102 -773 1503 -393 381
-858 619 -1404 716 -127 22 -177 26 -405 28 -143 2 -278 1 -300 -2z m1540
-1013 c121 -42 195 -105 244 -209 l26 -56 3 -657 3 -658 -78 0 c-49 -1 -98 -8
-130 -19 l-53 -18 0 554 0 553 -1320 0 -1320 0 -5 -22 c-3 -13 -4 -525 -3
-1138 3 -1045 4 -1117 21 -1147 39 -72 -4 -67 753 -73 l681 -5 -34 -120 c-19
-66 -40 -123 -46 -127 -7 -5 -307 -7 -667 -6 -644 3 -656 3 -707 24 -114 47
-190 126 -233 241 -20 54 -20 69 -18 1336 l3 1282 23 49 c48 104 120 169 234
212 l63 23 1251 0 c1227 1 1252 1 1309 -19z m-385 -1165 l0 -125 -920 0 -920
0 0 125 0 125 920 0 920 0 0 -125z m0 -530 l0 -125 -920 0 -920 0 0 125 0 125
920 0 920 0 0 -125z m617 -156 c32 -12 257 -231 279 -271 17 -32 18 -91 3
-121 -6 -12 -50 -61 -97 -110 l-87 -87 -192 192 c-106 106 -193 196 -193 201
0 4 37 46 83 94 103 107 140 126 204 102z m-763 -258 c-5 -5 -83 -61 -174
-125 l-165 -116 -677 0 -678 0 0 125 0 125 852 0 c508 0 848 -4 842 -9z m604
-353 c83 -84 121 -129 117 -139 -7 -20 -643 -642 -670 -656 -47 -24 -480 -144
-501 -139 -51 13 -50 30 30 303 l76 258 327 327 327 327 85 -79 c47 -43 141
-134 209 -202z"/>
<path d="M3155 1357 c-29 -89 -65 -227 -65 -249 0 -28 30 -68 51 -68 33 0 259
74 259 85 0 36 -33 182 -43 192 -19 18 -198 54 -202 40z"/>
</g>
</svg>
